<?xml version="1.0" encoding="UTF-8" standalone="no"?><!DOCTYPE svg PUBLIC "-//W3C//DTD SVG 1.1//EN" "http://www.w3.org/Graphics/SVG/1.1/DTD/svg11.dtd"><svg width="100%" height="100%" viewBox="0 0 4445 2223" version="1.1" xmlns="http://www.w3.org/2000/svg" xmlns:xlink="http://www.w3.org/1999/xlink" xml:space="preserve" xmlns:serif="http://www.serif.com/" style="fill-rule:evenodd;clip-rule:evenodd;stroke-linejoin:round;stroke-miterlimit:2;"><g id="g3724"><path id="path3728" d="M2150.97,1646.85c2.17,19.557 -158.853,14.265 -149.463,14.265c9.975,0 10.694,-2.573 7.484,-26.774c-3.373,-25.427 -17.735,-83.105 -50.052,-201.004c-7.957,-29.028 -14.473,-55.57 -14.481,-58.984c-0.004,-3.413 10.202,-12.966 22.687,-21.229c28.733,-19.014 158.629,-135.294 201.304,-180.201c17.786,-18.717 33.42,-34.03 34.742,-34.03c3.15,-0 192.799,172.499 198.113,180.198c2.346,3.399 8.658,29.33 9.442,64.693c0.851,38.369 -5.746,162.709 -10.602,182.055l4.034,40.412c-0,-0 -77.233,29.035 -129.178,38.197c-51.944,9.163 -95.59,16.661 -96.99,16.663c-8.126,0.013 52.731,-54.469 83.709,-74.94c73.51,-48.574 102.567,-107.889 79.683,-162.659c-18.335,-43.881 -54.239,-62.789 -97.244,-51.209c-26.436,7.119 -30.731,14.94 -22.275,40.56c8.306,25.17 0.068,46.714 -19.769,51.693c-8.219,2.063 -18.933,1.255 -23.807,-1.794c-12.785,-7.999 -14.293,-40.167 -2.88,-61.433c9.509,-17.717 9.446,-18.414 -2.845,-31.497c-21.294,-22.668 -41.106,-27.979 -75.58,-20.264c-34.047,7.619 -49.028,22.252 -58.395,57.038c-9.618,35.718 4.278,71.507 48.126,123.953c37.912,45.346 61.002,87.146 64.237,116.291Zm52.581,-199.636c1.762,-4.59 1.511,-15.085 -0.556,-23.322c-2.948,-11.745 -4.856,-13.24 -8.847,-6.932c-6.941,10.971 -6.603,38.6 0.471,38.6c3.151,-0 7.171,-3.756 8.932,-8.346l0,-0Zm707.968,-401.057c-37.841,-7.687 -51.789,-37.712 -25.516,-54.926c11.448,-7.501 12.778,-10.903 7.857,-20.097c-4.73,-8.838 -3.589,-13.552 5.664,-23.401c14.815,-15.77 14.61,-17.884 -3.228,-33.227c-20.088,-17.28 -20.037,-43.286 0.126,-63.45c14.155,-14.156 17.851,-14.961 70.37,-15.319c49.735,-0.34 55.43,0.645 55.43,9.583c0,8.144 -3.094,9.343 -16.961,6.569c-16.405,-3.281 -16.828,-2.865 -12.873,12.639c6.285,24.644 3.8,36.258 -10.908,50.966c-8.91,8.91 -22.122,14.476 -38.828,16.359c-24.192,2.727 -35.685,12.506 -28.453,24.208c1.718,2.78 15.164,5.054 29.879,5.054c43.447,0 61.761,5.576 67.449,20.538c6.218,16.355 -4.728,40.396 -24.205,53.158c-14.633,9.588 -54.835,15.605 -75.803,11.346l-0,-0Zm67.648,-22.777c5.347,-4.637 9.722,-14.089 9.722,-21.003c-0,-11.721 -2.702,-12.697 -39.903,-14.417c-39.754,-1.838 -54.663,3.469 -54.456,19.385c0.362,27.929 58.272,38.901 84.637,16.035Zm-26.418,-104.689c25.591,-9.82 20.341,-65.469 -6.818,-72.285c-21.893,-5.495 -31.821,4.17 -33.714,32.82c-1.395,21.099 0.427,26.777 10.958,34.153c14.143,9.906 16.498,10.329 29.574,5.312Zm342.557,126.407c-5.521,-3.499 -3.708,-5.681 6.944,-8.354l14.417,-3.618l-0,-177.355l-13.851,-3.476c-7.618,-1.912 -12.645,-5.426 -11.172,-7.809c5.018,-8.12 42.222,-12.067 50.328,-5.34c5.802,4.815 12.301,4.9 25.408,0.33c27.93,-9.736 37.98,-7.445 58.836,13.41c18.893,18.893 19.466,20.69 17.087,53.583c-2.211,30.567 -4.507,35.908 -22.543,52.437c-14.954,13.705 -27.259,19.355 -48.198,22.132l-28.117,3.731l-0,24.178c-0,21.157 1.735,24.614 13.888,27.664c7.639,1.918 13.889,5.715 13.889,8.44c0,6.314 -66.963,6.355 -76.916,0.05l-0,-0.003Zm103.579,-89.692c36.763,-34.25 12.259,-108.841 -34.269,-104.316l-17.394,1.692l-1.583,56.944l-1.583,56.945l21.369,-0c13.787,-0 25.659,-3.997 33.46,-11.265Zm424.499,89.248c-20.292,-4.94 -40.051,-20.342 -40.051,-31.219c0,-3.888 6.346,-12.06 14.101,-18.161c10.565,-8.31 13.273,-14.392 10.797,-24.255c-2.196,-8.75 0.526,-18.032 8.122,-27.687c13.576,-17.26 14.166,-21.106 3.234,-21.106c-12.637,0 -26.445,-31.421 -22.234,-50.594c6.036,-27.481 25.026,-35.289 86.995,-35.769c48.375,-0.374 54.541,0.676 54.541,9.288c-0,7.994 -3.435,9.152 -19.444,6.555c-18.633,-3.024 -26.844,4.181 -13.889,12.187c3.055,1.888 5.555,10.899 5.555,20.025c0,21.94 -20.784,42.168 -47.99,46.706c-32.526,5.426 -36.321,7.414 -34.307,17.974c1.494,7.836 9.626,10.345 41.612,12.84c43.151,3.365 57.352,10.834 57.352,30.164c-0,13.573 -17.576,38.915 -32.375,46.681c-15.012,7.876 -52.291,11.174 -72.019,6.371Zm66.518,-17.649c11.141,-5.683 18.696,-26.224 12.039,-32.735c-6.003,-5.87 -75.748,-8.487 -84.36,-3.165c-8.583,5.305 -8.275,28.295 0.475,35.399c14.498,11.77 49.276,12.013 71.846,0.501l-0,0Zm-16.728,-113.973c21.248,-19.23 6.571,-68.584 -20.396,-68.584c-14.987,0 -30.556,18.648 -30.556,36.598c0,15.088 20.219,41.18 31.911,41.18c4.884,0 13.453,-4.137 19.041,-9.194Zm-1273.17,67.239c0,-1.687 7.321,-5.619 16.268,-8.738c14.998,-5.229 16.543,-8.35 19.798,-39.989c1.941,-18.875 2.746,-60.568 1.787,-92.651l-1.742,-58.333l-27.066,-1.721c-21.843,-1.389 -29.616,0.674 -40.278,10.69c-7.266,6.827 -13.211,15.726 -13.211,19.777c-0,4.05 -2.5,7.365 -5.556,7.365c-6.253,-0 -7.095,-13.134 -2.361,-36.806l3.194,-15.972l204.723,-0l-0.327,27.778c-0.28,23.8 -1.274,26.256 -6.944,17.154c-15.748,-25.279 -25.744,-31.043 -53.84,-31.043l-27.778,-0l-0,90.555c-0,95.873 2.015,103.889 26.111,103.889c7.028,0 12.778,2.5 12.778,5.556c-0,3.314 -21.297,5.555 -52.778,5.555c-29.028,0 -52.778,-1.38 -52.778,-3.066Zm147.222,-3.572c-15.14,-8.586 -19.259,-15.717 -19.359,-33.511c-0.111,-19.675 17.878,-31.434 54.768,-35.803l28.48,-3.373l0,-23.115c0,-26.768 -7.436,-36.449 -27.997,-36.449c-10.369,0 -16.575,4.196 -21.191,14.326c-3.59,7.879 -9.46,13.347 -13.044,12.152c-9.98,-3.326 -10.927,-11.962 -2.564,-23.398c9.983,-13.654 62.884,-18.592 77.957,-7.278c9.586,7.195 13.966,41.527 14.559,114.1c0.033,3.918 5.683,9.285 12.558,11.927c12.257,4.711 12.18,4.93 -3.954,11.242c-12.535,4.905 -19.374,4.874 -28.719,-0.127c-9.227,-4.938 -16.712,-5.015 -30.209,-0.31c-22.009,7.673 -27.163,7.625 -41.285,-0.383l0,-0Zm55.101,-13.401c8.55,-3.28 12.941,-40.623 5.636,-47.928c-4.605,-4.605 -43.366,7.002 -48.152,14.419c-14.376,22.282 13.834,44.516 42.516,33.509Zm264.879,13.363c-48.503,-26.198 -48.215,-110.334 0.463,-135.507c38.141,-19.723 87.793,4.9 87.863,43.572l0.029,15.278l-94.444,-0l-0,18.951c-0,28.505 25.222,47.716 62.648,47.716c20.008,-0 26.718,1.745 22.588,5.875c-9.461,9.461 -63.997,12.296 -79.145,4.115l-0.002,-0Zm53.2,-90.621c7.023,-2.182 3.886,-23.011 -5.218,-34.647c-14.474,-18.499 -54.073,5.692 -54.073,33.034c0,9.56 2.817,10.325 26.389,7.169c14.514,-1.943 29.32,-4.443 32.902,-5.556Zm69.876,93.377c-9.572,-1.844 -12.5,-6.222 -12.5,-18.688c-0,-19.944 6.864,-20.811 18.933,-2.392c12.949,19.762 44.824,17.911 47.836,-2.777c2.475,-16.995 -0.657,-21.492 -24.846,-35.668c-42.46,-24.883 -53.028,-51.963 -29.065,-74.475c8.889,-8.351 19.895,-12.08 35.657,-12.08c31.319,0 40.374,4.494 40.374,20.039c-0,16.433 -14.481,17.824 -19.542,1.876c-2.936,-9.251 -7.489,-11.096 -23.986,-9.722c-16.042,1.336 -20.727,4.266 -22.086,13.811c-1.345,9.45 5.101,16.48 29.314,31.969c43.548,27.858 50.039,49.924 23.392,79.527c-11.094,12.326 -30.45,14.942 -63.481,8.58Zm276.389,-2.155c-0,-3.342 5,-7.384 11.111,-8.982c10.252,-2.681 11.111,-7.578 11.111,-63.368l-0,-60.464l-14.217,0c-8.063,0 -12.73,-2.404 -10.783,-5.555c1.888,-3.056 8.286,-5.556 14.217,-5.556c8.053,0 10.79,-3.868 10.811,-15.277c0.016,-8.403 5.992,-22.733 13.281,-31.844c11.846,-14.806 17.348,-16.872 51.789,-19.444c62.232,-4.649 57.124,-13.585 57.124,99.932c0,94.577 0.524,99.384 11.192,102.77c19.47,6.179 6.813,12.474 -25.081,12.474c-33.434,0 -42.883,-5.707 -25.155,-15.194c10.572,-5.658 11.266,-11.321 11.266,-91.817c0,-84.92 -0.137,-85.878 -13.616,-94.71c-24.52,-16.066 -53.05,2.253 -53.05,34.063c-0,18.518 0.617,19.047 22.222,19.047c12.222,0 22.222,2.5 22.222,5.556c0,3.055 -9.791,5.555 -21.759,5.555c-11.968,0 -22.593,2.446 -23.611,5.435c-1.019,2.99 -1.066,30.259 -0.105,60.599c1.692,53.438 2.177,55.272 15.505,58.617c24.43,6.132 8.095,14.238 -28.691,14.238c-22.194,0 -35.783,-2.307 -35.783,-6.075Zm203.414,-11.622c-24.874,-24.874 -30.311,-51.793 -17.327,-85.79c15.606,-40.866 54.736,-57.289 91.364,-38.348c8.831,4.567 18.502,15.948 21.946,25.829c11.179,32.066 10.416,32.673 -41.064,32.673l-47.222,-0l-0,16.212c-0,8.917 1.553,20.259 3.451,25.206c5.417,14.116 32.434,25.249 61.273,25.249c37.872,-0 23.434,11.223 -19.439,15.111c-32.814,2.975 -34.326,2.515 -52.982,-16.142Zm55.614,-76.747c10.266,-0 13.194,-2.994 13.194,-13.492c-0,-16.116 -13.402,-30.953 -27.958,-30.953c-14.398,0 -33.153,21.414 -33.153,37.853c-0,12.198 1.717,13.193 17.361,10.064c9.549,-1.91 23.299,-3.472 30.556,-3.472Zm248.642,84.2c-27.778,-17.523 -37.697,-60.563 -22.326,-96.879c10.945,-25.858 27.511,-38.256 55.301,-41.389c21.209,-2.39 26.694,-0.656 41.6,13.157c10.287,9.532 17.844,22.592 18.852,32.577l1.681,16.667l-46.096,1.618c-51.41,1.804 -57.254,6.289 -45.421,34.855c8.926,21.551 31.189,32.927 64.852,33.141c21.283,0.135 24.647,1.342 16.668,5.985c-5.499,3.199 -22.999,7.028 -38.889,8.508c-22.446,2.091 -32.759,0.253 -46.222,-8.24Zm51.358,-84.2c16.829,-0 18.212,-21.515 2.307,-35.909c-15.786,-14.285 -37.885,-7.177 -47.299,15.214c-9.471,22.524 -5.883,28.231 15.11,24.032c9.178,-1.835 22.625,-3.337 29.882,-3.337Z" style="fill:#f99224;fill-rule:nonzero;"/><path id="path3726" d="M1893.06,1696.51c-16.231,-4.803 -10.929,-12.473 11.111,-16.074c36.853,-6.022 54.085,-9.47 57.624,-11.532c1.902,-1.107 0.095,-21.438 -4.015,-45.18c-4.11,-23.741 -15.037,-90.666 -24.282,-148.721c-9.244,-58.056 -18.181,-113.705 -19.858,-123.666c-2.71,-16.095 -4.285,-17.45 -14.155,-12.168c-6.108,3.269 -19.035,5.169 -28.726,4.222c-16.479,-1.61 -10.259,-7.282 96.09,-87.612c62.541,-47.24 135.586,-102.893 162.322,-123.673c26.736,-20.781 48.611,-34.822 48.611,-31.203c-0,12.521 -191.781,188.3 -237.721,217.885c-13.065,8.414 -17.579,14.939 -15.832,22.882c1.344,6.111 13.9,59.006 27.903,117.544c14.002,58.538 28.491,128.697 32.197,155.908l6.738,49.476l69.746,-13.716c38.361,-7.544 70.546,-14.335 71.523,-15.092c5.995,-4.646 -25.949,-50.234 -60.11,-85.787c-50.596,-52.658 -61.111,-72.82 -61.111,-117.176c0,-33.075 0.858,-35.143 24.269,-58.555c28.507,-28.507 45.519,-32.841 21.491,-5.474c-9.076,10.337 -18.237,28.046 -20.359,39.354c-7.675,40.914 6.965,74.812 57.666,133.518c32.754,37.925 55.822,83.556 55.822,110.422c0,12.135 -4.298,13.535 -84.722,27.588c-87.225,15.242 -155.155,21.88 -172.222,16.83Zm293.583,-47.263c5.821,-6.527 32.131,-27.737 58.467,-47.133c53.932,-39.72 85.611,-72.269 97.101,-99.768c11.01,-26.352 9.668,-62.982 -3.234,-88.289c-6.065,-11.896 -10.067,-22.589 -8.894,-23.762c4.997,-4.998 30.935,36.963 37.103,60.024c14.218,53.159 -9.533,95.094 -80.841,142.739c-48.617,32.484 -48.709,32.423 34.603,22.95l54.675,-6.217l15.418,-139.616c8.48,-76.789 16.606,-144.719 18.057,-150.956c2.102,-9.031 -19.478,-31.531 -106.005,-110.528c-59.755,-54.554 -108.644,-100.236 -108.644,-101.516c-0,-12.873 138.239,92.916 223.003,170.655c43.784,40.156 66.59,73.204 55.323,80.167c-2.389,1.477 -12.73,-5.968 -22.98,-16.544c-10.251,-10.575 -20.647,-19.228 -23.103,-19.228c-2.456,0 -4.476,16.875 -4.488,37.5c-0.021,39.005 -8.588,173.037 -14.07,220.187l-3.154,27.132l46.123,-3.09l46.123,-3.09l-44.717,9.292c-37.952,7.886 -47.469,12.233 -62.912,28.736l-18.196,19.444l2.42,-15.278c3.066,-19.355 4.88,-19.378 -105.057,1.367c-48.512,9.155 -89.217,16.655 -90.454,16.667c-1.238,0.013 2.512,-5.318 8.333,-11.845Zm864.489,5.695c-22.528,-6.632 -27.865,-18.519 -14.799,-32.958c5.445,-6.016 8.239,-12.598 6.21,-14.627c-2.029,-2.029 0.105,-9.479 4.741,-16.555c7.727,-11.793 7.497,-13.8 -2.758,-24.055c-14.083,-14.083 -14.161,-24.883 -0.278,-38.765c8.779,-8.78 18.003,-10.79 47.222,-10.292c19.971,0.341 36.312,3.042 36.312,6.003c-0,2.961 -4.721,4.149 -10.491,2.64c-9.248,-2.418 -10.158,-0.256 -7.675,18.249c2.93,21.846 -4.809,30.794 -30.026,34.719c-31.555,4.912 -31.162,20.702 0.515,20.702c34.439,-0 42.121,4.138 42.121,22.688c-0,26.367 -35.846,42.628 -71.095,32.251l0.001,0Zm51.333,-15.7c14.088,-15.567 6.271,-22.572 -25.185,-22.572c-19.534,-0 -28.569,2.461 -30.85,8.404c-8.847,23.056 37.407,34.752 56.035,14.168Zm-9.004,-85.408c2.208,-19.26 -8.13,-32.69 -23.47,-30.488c-12.829,1.842 -17.192,14.902 -11.952,35.78c2.785,11.096 6.42,13.459 18.548,12.061c11.884,-1.371 15.464,-5.052 16.874,-17.353Zm-240.679,57.442c-15.977,-2.139 -19.49,-4.093 -12.5,-6.95c13.112,-5.36 14.337,-69.568 1.421,-74.524c-11.952,-4.586 -4.528,-13.132 11.407,-13.132c13.235,-0 13.561,1.055 13.561,43.981c-0,30.159 2.182,44.761 6.944,46.462c13.248,4.731 1.275,7.124 -20.833,4.163Zm306.944,1.564c-5.585,-1.46 -9.647,-7.686 -9.545,-14.633c0.168,-11.499 0.555,-11.594 7.882,-1.925c9.383,12.379 32.744,10.438 35.291,-2.932c1.155,-6.063 -6.263,-14.519 -20.776,-23.681c-26.759,-16.892 -30.375,-36.521 -9.273,-50.347c18.014,-11.804 42.319,-5.768 42.078,10.45c-0.165,11.073 -0.688,11.224 -7.557,2.175c-8.384,-11.044 -28.508,-12.944 -34.495,-3.256c-2.339,3.784 2.709,11.786 12.172,19.294c40.776,32.356 43.446,38.629 24.501,57.573c-10.804,10.804 -20.259,12.514 -40.278,7.282Zm93.056,-1.564c-15.977,-2.139 -19.49,-4.093 -12.5,-6.95c13.568,-5.546 14.552,-76.545 1.061,-76.545c-4.764,-0 -7.303,-2.198 -5.642,-4.885c3.97,-6.424 79.8,-7.058 83.73,-0.7c1.671,2.704 11.97,1.184 22.887,-3.377c17.768,-7.424 21.25,-7.375 33.212,0.462c11.819,7.744 13.363,12.881 13.363,44.463c-0,27.214 2.152,36.911 9.047,40.77c13.295,7.44 2.456,10.393 -22.936,6.249c-12.222,-1.995 -17.733,-3.983 -12.246,-4.416c8.713,-0.689 9.768,-5.538 8.333,-38.289l-1.642,-37.499l-20.834,-1.725l-20.833,-1.724l-0,39.224c-0,22.446 2.376,39.225 5.555,39.225c3.056,-0 5.556,1.941 5.556,4.313c-0,2.372 -10.402,3.322 -23.115,2.109c-17.791,-1.697 -20.99,-3.393 -13.889,-7.367c6.627,-3.709 9.226,-12.782 9.226,-32.211c0,-38.389 -3.575,-44.622 -25.594,-44.622l-18.85,-0l-0,38.426c-0,25.714 2.297,39.246 6.944,40.906c13.248,4.731 1.275,7.124 -20.833,4.163Zm188.515,-7.408c-11.363,-9.773 -15.024,-18.203 -15.481,-35.645c-0.985,-37.565 29.757,-62.336 62.986,-50.752c20.94,7.299 27.869,19.506 27.869,49.099c-0,43.141 -43.536,64.685 -75.374,37.298Zm52.956,-9.055c8.459,-15.806 7.002,-46.108 -2.897,-60.241c-24.935,-35.598 -58.924,10.881 -41.489,56.736c6.844,18.001 35.42,20.258 44.386,3.505Zm65.458,10.833c-29.23,-22.992 -23.478,-72.678 10.035,-86.681c50.241,-20.992 86.841,41.976 47.352,81.465c-18.994,18.994 -37.709,20.695 -57.387,5.216Zm51.418,-16.787c11.741,-28.345 -1.199,-66.634 -22.519,-66.634c-16.532,0 -27.495,15.81 -27.495,39.651c0,30.677 8.128,43.683 27.299,43.683c12.322,-0 17.32,-3.675 22.715,-16.7Zm54.153,23.981c-5.347,-1.397 -9.722,-7.357 -9.722,-13.244c-0,-12.689 8.566,-14.237 13.12,-2.371c4.376,11.405 30.778,10.666 35.249,-0.987c2.408,-6.274 -0.826,-12.175 -9.896,-18.056c-26.35,-17.083 -37.89,-31.988 -34.576,-44.659c6.019,-23.016 57.214,-27.575 57.214,-5.095c-0,5.755 -2.5,10.464 -5.556,10.464c-3.055,-0 -5.555,-3.916 -5.555,-8.702c-0,-12.285 -29.86,-8.356 -32.248,4.243c-1.2,6.33 5.633,13.216 20.785,20.946c18.58,9.479 22.574,14.375 22.574,27.673c-0,27.339 -18.881,38.283 -51.389,29.788Zm-1025,-7.726c8.223,-4.79 9.722,-14.143 9.722,-60.667c0,-46.523 -1.499,-55.876 -9.722,-60.666c-7.534,-4.388 -3.469,-5.662 18.055,-5.662c21.524,-0 25.589,1.274 18.056,5.662c-8.271,4.818 -9.722,14.269 -9.722,63.313c-0,50.233 1.251,57.977 9.722,60.19c5.347,1.398 -2.778,2.755 -18.056,3.017c-21.374,0.366 -25.536,-0.83 -18.055,-5.187Zm64.733,-14.952c-37.316,-53.554 -36.526,-47.464 -9.914,-76.335c19.117,-20.739 22.162,-26.714 15.699,-30.803c-5.533,-3.501 -0.268,-5.093 16.982,-5.137l25,-0.065l-16.667,10.386c-9.166,5.713 -23.935,18.126 -32.819,27.585l-16.152,17.199l16.113,23.252c8.862,12.788 22.759,30.365 30.881,39.06l14.768,15.81l-14.729,-0.119c-10.649,-0.085 -18.727,-5.856 -29.162,-20.833Zm65.822,17.273c4.961,-2.002 6.945,-20.13 6.945,-63.451c-0,-54.024 -1.062,-60.657 -9.722,-60.733c-8.309,-0.073 -8.511,-0.868 -1.389,-5.47c4.583,-2.962 13.333,-5.427 19.444,-5.478c10.568,-0.087 11.018,2.951 9.202,62.109c-1.677,54.638 -0.703,63.083 8.006,69.452c8.683,6.348 6.847,7.196 -14.757,6.811c-13.57,-0.241 -21.548,-1.699 -17.729,-3.24Zm136.112,-0.15c8.079,-2.111 9.722,-9.045 9.722,-41.022c-0,-32.213 -1.509,-38.482 -9.26,-38.482c-5.092,-0 -7.504,-1.755 -5.36,-3.899c2.144,-2.144 21.203,-4.595 42.354,-5.446c47.757,-1.921 55.265,5.422 52.102,50.957c-1.681,24.202 -0.193,31.145 7.65,35.713c7.656,4.459 4.396,5.67 -15.264,5.67c-20.014,0 -23.014,-1.155 -15.043,-5.794c7.623,-4.436 9.7,-11.885 8.859,-31.775c-1.558,-36.843 -7.25,-45.426 -30.123,-45.426l-19.249,-0l0,35.835c0,28.268 2.053,37.031 9.723,41.498c7.481,4.357 3.319,5.553 -18.056,5.187c-15.278,-0.262 -23.403,-1.619 -18.055,-3.017l-0,0.001Zm-58.797,-122.097c-7.043,-7.043 -3.66,-12.963 7.408,-12.963c6.172,0 11.111,3.704 11.111,8.334c-0,8.457 -11.752,11.395 -18.519,4.629Zm-675.73,-29.264c-8.62,-16.107 -6.943,-34.454 4.93,-53.925l10.639,-17.448l-14.827,-13.817c-20.391,-19.003 -36.034,-26.287 -56.456,-26.287c-10.158,0 -15.935,-2.304 -13.926,-5.555c8.029,-12.992 60.77,-1.026 84.873,19.255c10.998,9.254 18.199,11.739 23.784,8.205c4.405,-2.787 24.259,-4.772 44.121,-4.411c34.527,0.629 34.993,0.815 10.631,4.237c-14.015,1.968 -32.182,7.969 -40.372,13.336c-12.178,7.979 -13.862,11.681 -9.242,20.313c8.504,15.89 6.789,48.243 -3.081,58.112c-12.068,12.069 -34.116,10.987 -41.074,-2.015Zm33.138,-19.482c-0,-23.879 -7.517,-29.302 -15.706,-11.331c-7.158,15.712 -3.303,30.448 7.967,30.448c5.115,-0 7.739,-6.481 7.739,-19.117Zm408.006,-44.949c5.931,-4.486 12.296,-8.157 14.144,-8.157c1.849,0 20.558,-42.5 41.576,-94.444c27.566,-68.126 40.746,-94.445 47.298,-94.445c6.72,0 17.666,24.043 42.084,92.437c35.734,100.085 44.353,112.478 71.142,102.293l14.639,-5.566l-0,-176.848l-15.278,-3.978c-13.893,-3.618 -14.271,-4.352 -4.167,-8.097c6.111,-2.265 19.236,-5.684 29.167,-7.596l18.055,-3.478l0,100.381c0,95.709 0.518,100.517 11.111,103.287c29.907,7.821 3.499,12.709 -68.055,12.597c-78.288,-0.122 -79.018,-0.238 -65.733,-10.45l13.433,-10.327l-10.7,-29.827l-10.7,-29.828l-33.814,-1.631l-33.814,-1.632l-12.15,31.751c-9.586,25.048 -10.648,32.705 -5.031,36.269c3.916,2.485 8.995,4.556 11.287,4.603c2.291,0.044 4.166,2.585 4.166,5.64c0,3.13 -15.16,5.479 -34.722,5.379c-31.741,-0.161 -33.796,-0.877 -23.938,-8.333Zm119.771,-89.531c0,-7.197 -23.866,-68.834 -25.875,-66.825c-1.137,1.137 -8.094,17.447 -15.461,36.244l-13.393,34.178l27.364,-0c15.051,-0 27.365,-1.619 27.365,-3.597Zm210.974,83.79c-2.98,-7.837 -5.418,-37.837 -5.418,-66.666c-0,-48.713 -0.785,-52.416 -11.111,-52.416c-15.375,-0 -13.907,-8.054 2.859,-15.693c7.684,-3.501 16.836,-12.653 20.337,-20.337c8.66,-19.007 14.644,-17.546 16.73,4.085c1.634,16.948 3.19,18.161 25.352,19.764c31.472,2.277 30.342,12.181 -1.389,12.181l-25,-0l-0,54.875c-0,61.777 4.762,71.117 33.347,65.4c9.159,-1.832 16.653,-1.161 16.653,1.491c-0,7.427 -15.126,11.567 -42.259,11.567c-21.384,-0 -25.407,-1.905 -30.101,-14.251Zm112.453,5.58c-42.465,-29.743 -36.498,-106.107 10.249,-131.178c22.813,-12.234 34.189,-12.69 54.505,-2.184c20.92,10.818 26.817,18.976 31.385,43.422l3.893,20.833l-102.119,0l3.633,18.056c6.655,33.078 30.004,46.286 76.416,43.225c20.954,-1.381 19.334,8.741 -2.083,13.025c-30.167,6.033 -63.061,3.78 -75.879,-5.199Zm56.675,-83.59c18.578,-7.129 2.781,-46.875 -18.463,-46.451c-14.235,0.283 -28.34,13.908 -33.682,32.533l-4.959,17.29l24.158,0c13.287,0 28.112,-1.517 32.946,-3.372Zm160.176,86.532c-9.655,-3.881 -12.5,-9.49 -12.5,-24.648c0,-25.078 9.364,-25.163 19.803,-0.178c6.755,16.169 10.966,19.444 24.992,19.444c9.277,0 24.392,-3.891 33.588,-8.646c14.006,-7.243 16.44,-11.486 15.001,-26.154c-1.312,-13.379 -7.614,-21.81 -26.717,-35.742c-51.11,-37.277 -61.111,-48.714 -61.111,-69.885c-0,-27.46 4.454,-36.496 22.619,-45.89c16.711,-8.641 42.698,-10.342 71.131,-4.655c15.86,3.172 17.361,5.333 17.361,25c-0,26.796 -8.174,27.818 -16.667,2.083c-5.796,-17.562 -8.407,-19.444 -26.972,-19.444c-40.54,-0 -58.789,30.08 -32.75,53.981c6.875,6.311 25.665,19.485 41.755,29.277c33.479,20.374 40.189,30.137 40.189,58.471c0,14.959 -4.234,24.471 -16.239,36.476c-14.352,14.352 -20,16.198 -48.611,15.887c-17.804,-0.194 -37.997,-2.613 -44.872,-5.376l0,-0.001Zm164.023,-5.143c-30.361,-23.95 -32.693,-83.812 -4.369,-112.136c32.916,-32.916 95.401,-34.629 99.096,-2.717c1.454,12.564 -0.162,15.218 -8.334,13.68c-5.576,-1.05 -12.606,-7.519 -15.622,-14.376c-7.32,-16.641 -25.635,-15.951 -46.679,1.756c-28.056,23.608 -29.972,64.848 -4.392,94.586c11.232,13.058 16.784,14.857 45.066,14.603c44.244,-0.398 31.987,11.404 -14.915,14.362c-29.164,1.839 -37.126,0.281 -49.851,-9.758Zm117.922,5.964c-0,-2.699 5,-6.215 11.111,-7.813c10.526,-2.753 11.111,-7.578 11.111,-91.712l-0,-88.807l-15.278,-3.978c-13.893,-3.618 -14.27,-4.352 -4.167,-8.097c6.112,-2.265 19.237,-5.684 29.167,-7.596l18.056,-3.478l-0,82.524l24.825,-9.201c29.76,-11.03 51.866,-5.588 62.475,15.38c4.014,7.934 7.015,34.678 7.062,62.928c0.074,44.423 1.147,49.41 11.193,52.037c22.994,6.013 9.811,12.721 -25,12.721c-34.811,-0 -47.994,-6.708 -25,-12.721c9.966,-2.606 11.111,-7.578 11.111,-48.235c0,-24.932 -2.434,-49.878 -5.409,-55.437c-6.506,-12.156 -28.315,-18.448 -47.368,-13.666c-13.655,3.427 -13.889,4.421 -13.889,58.959c-0,50.801 0.935,55.718 11.111,58.379c22.994,6.013 9.811,12.721 -25,12.721c-19.861,-0 -36.111,-2.208 -36.111,-4.908Zm219.759,-7.439c-6.301,-8.996 -8.648,-26.174 -8.648,-63.287c-0,-50.854 -0.029,-50.946 -15.278,-55.115c-14.928,-4.081 -14.72,-4.346 9.083,-11.578c13.399,-4.071 26.524,-6.065 29.167,-4.432c2.643,1.634 4.806,28.573 4.806,59.865c-0,36.843 2.349,59.243 6.666,63.561c3.667,3.666 18.667,6.666 33.334,6.666l26.666,0l0,-109.906l-15.199,-3.815c-17.594,-4.416 -10.419,-10.318 19.366,-15.931l18.055,-3.403l0,63.644c0,63.254 0.085,63.665 13.889,67.13c20.604,5.171 16.871,11.912 -9.02,16.286c-16.293,2.753 -24.201,1.782 -27.38,-3.362c-3.552,-5.746 -7.461,-5.87 -19.019,-0.605c-24.545,11.184 -56.579,8.428 -66.488,-5.718Zm158.018,7.439c0,-2.699 5,-6.215 11.112,-7.813c10.526,-2.753 11.111,-7.578 11.111,-91.712l-0,-88.807l-15.278,-3.978c-13.893,-3.618 -14.271,-4.352 -4.167,-8.097c6.111,-2.265 19.236,-5.684 29.167,-7.596l18.055,-3.478l0,99.487c0,94.607 0.545,99.66 11.112,103.013c22.386,7.105 10.176,13.889 -25,13.889c-19.862,-0 -36.112,-2.208 -36.112,-4.908Zm127.156,-3.111c-28.17,-15.916 -37.347,-70.476 -17.623,-104.767c5.622,-9.773 19.771,-22.467 31.442,-28.209c38.972,-19.17 81.248,4.25 81.248,45.009l-0,18.208l-47.223,0c-44.019,0 -47.222,0.779 -47.222,11.477c0,14.054 9.908,33.428 21.741,42.513c4.848,3.722 23.69,6.847 41.87,6.945c25.753,0.138 31.58,1.653 26.374,6.858c-10.317,10.317 -73.404,11.685 -90.607,1.966Zm58.501,-84.242c4.833,-1.855 8.788,-8.105 8.788,-13.889c-0,-12.255 -18.733,-32.739 -29.94,-32.739c-12.421,0 -30.402,18.195 -34.314,34.722c-3.54,14.95 -3.077,15.278 21.531,15.278c13.831,0 29.102,-1.517 33.935,-3.372Z" style="fill:#1d1a19;fill-rule:nonzero;"/></g></svg>